<svg width="132" height="44" viewBox="0 0 132 44" fill="none" xmlns="http://www.w3.org/2000/svg">
<rect x="0.5" y="0.5" width="131" height="43" rx="6.5" stroke="#222222"/>
<path d="M89.6793 21.121V23.6411H88.0997V25.2938H89.6793V30.9093C89.6793 32.8268 90.5468 33.5938 92.729 33.5938C93.1125 33.5938 93.4778 33.5481 93.7973 33.4933V31.8589C93.5234 31.8863 93.3499 31.9046 93.0486 31.9046C92.0716 31.9046 91.6425 31.448 91.6425 30.4071V25.2938H93.7973V23.6411H91.6425V21.121H89.6793Z" fill="#222222"/>
<path d="M99.3566 33.7307C102.26 33.7307 104.041 31.7859 104.041 28.5627C104.041 25.3577 102.251 23.4037 99.3566 23.4037C96.453 23.4037 94.6633 25.3577 94.6633 28.5627C94.6633 31.7859 96.4438 33.7307 99.3566 33.7307ZM99.3566 31.9867C97.6491 31.9867 96.6904 30.7358 96.6904 28.5627C96.6904 26.4078 97.6491 25.1477 99.3566 25.1477C101.055 25.1477 102.023 26.4078 102.023 28.5627C102.023 30.7267 101.055 31.9867 99.3566 31.9867Z" fill="#222222"/>
<path d="M105.564 33.539H107.527V27.6678C107.527 26.2708 108.577 25.3303 110.066 25.3303C110.413 25.3303 110.997 25.3943 111.161 25.449V23.5133C110.951 23.4585 110.577 23.4311 110.285 23.4311C108.988 23.4311 107.883 24.1433 107.6 25.1203H107.454V23.5955H105.564V33.539Z" fill="#222222"/>
<path d="M116.036 25.0747C117.488 25.0747 118.437 26.0882 118.483 27.6496H113.461C113.57 26.0973 114.584 25.0747 116.036 25.0747ZM118.474 30.8545C118.108 31.6306 117.296 32.0598 116.109 32.0598C114.538 32.0598 113.525 30.955 113.461 29.211V29.1014H120.482V28.4166C120.482 25.2938 118.812 23.4037 116.045 23.4037C113.242 23.4037 111.461 25.4217 111.461 28.5992C111.461 31.7767 113.205 33.7307 116.054 33.7307C118.328 33.7307 119.916 32.635 120.364 30.8545H118.474Z" fill="#222222"/>
<path d="M76.8054 29.867C76.9568 32.3087 78.9915 33.8702 82.02 33.8702C85.2566 33.8702 87.2819 32.233 87.2819 29.6209C87.2819 27.5673 86.1273 26.4316 83.326 25.7786L81.8212 25.4095C80.042 24.9931 79.3228 24.4347 79.3228 23.46C79.3228 22.2297 80.4395 21.4252 82.1146 21.4252C83.7045 21.4252 84.8024 22.2107 85.0011 23.4694H87.0642C86.9412 21.1697 84.9159 19.5514 82.143 19.5514C79.1619 19.5514 77.1745 21.1697 77.1745 23.6019C77.1745 25.6083 78.3007 26.8007 80.7707 27.378L82.531 27.8039C84.3386 28.2298 85.1336 28.8544 85.1336 29.8954C85.1336 31.1068 83.8844 31.9869 82.1809 31.9869C80.3543 31.9869 79.0862 31.1636 78.9064 29.867H76.8054Z" fill="#222222"/>
<path d="M56.4693 23.4311C55.118 23.4311 53.9492 24.1068 53.3466 25.239H53.2005V23.5955H51.3104V36.8444H53.2735V32.0324H53.4287C53.9492 33.0824 55.0723 33.7033 56.4876 33.7033C58.9986 33.7033 60.5965 31.7219 60.5965 28.5627C60.5965 25.4034 58.9986 23.4311 56.4693 23.4311ZM55.9123 31.9411C54.2688 31.9411 53.237 30.6445 53.237 28.5718C53.237 26.49 54.2688 25.1934 55.9215 25.1934C57.5833 25.1934 58.5785 26.4626 58.5785 28.5627C58.5785 30.6719 57.5833 31.9411 55.9123 31.9411Z" fill="#222222"/>
<path d="M67.4658 23.4311C66.1144 23.4311 64.9457 24.1068 64.343 25.239H64.1969V23.5955H62.3069V36.8444H64.27V32.0324H64.4252C64.9457 33.0824 66.0688 33.7033 67.4841 33.7033C69.995 33.7033 71.5929 31.7219 71.5929 28.5627C71.5929 25.4034 69.995 23.4311 67.4658 23.4311ZM66.9088 31.9411C65.2653 31.9411 64.2335 30.6445 64.2335 28.5718C64.2335 26.49 65.2653 25.1934 66.9179 25.1934C68.5798 25.1934 69.575 26.4626 69.575 28.5627C69.575 30.6719 68.5798 31.9411 66.9088 31.9411Z" fill="#222222"/>
<path d="M47.7882 33.539H50.0406L45.1099 19.8826H42.8291L37.8984 33.539H40.0751L41.3338 29.9143H46.5389L47.7882 33.539ZM43.8607 22.3622H44.0216L45.9995 28.1351H41.8733L43.8607 22.3622Z" fill="#222222"/>
<path d="M39.2168 9.58208V16.17H41.5954C43.5585 16.17 44.6953 14.9602 44.6953 12.8555C44.6953 10.7828 43.5494 9.58208 41.5954 9.58208H39.2168ZM40.2395 10.5134H41.4813C42.8463 10.5134 43.6544 11.3809 43.6544 12.8692C43.6544 14.3803 42.86 15.2386 41.4813 15.2386H40.2395V10.5134Z" fill="#222222"/>
<path d="M48.1769 16.2659C49.6287 16.2659 50.519 15.2934 50.519 13.6818C50.519 12.0794 49.6242 11.1024 48.1769 11.1024C46.7251 11.1024 45.8303 12.0794 45.8303 13.6818C45.8303 15.2934 46.7205 16.2659 48.1769 16.2659ZM48.1769 15.3939C47.3232 15.3939 46.8438 14.7684 46.8438 13.6818C46.8438 12.6044 47.3232 11.9744 48.1769 11.9744C49.0261 11.9744 49.51 12.6044 49.51 13.6818C49.51 14.7638 49.0261 15.3939 48.1769 15.3939Z" fill="#222222"/>
<path d="M58.1003 11.1982H57.1188L56.2331 14.9921H56.1555L55.1328 11.1982H54.1923L53.1697 14.9921H53.0966L52.2064 11.1982H51.2111L52.5807 16.17H53.5897L54.6123 12.5085H54.69L55.7172 16.17H56.7353L58.1003 11.1982Z" fill="#222222"/>
<path d="M59.2307 16.17H60.2123V13.2618C60.2123 12.4857 60.6734 12.0018 61.3993 12.0018C62.1252 12.0018 62.4722 12.3989 62.4722 13.1979V16.17H63.4538V12.9514C63.4538 11.7689 62.842 11.1024 61.7326 11.1024C60.9839 11.1024 60.4908 11.4356 60.2488 11.9881H60.1758V11.1982H59.2307V16.17Z" fill="#222222"/>
<path d="M64.9996 16.17H65.9812V9.25793H64.9996V16.17Z" fill="#222222"/>
<path d="M69.6728 16.2659C71.1246 16.2659 72.0148 15.2934 72.0148 13.6818C72.0148 12.0794 71.12 11.1024 69.6728 11.1024C68.221 11.1024 67.3262 12.0794 67.3262 13.6818C67.3262 15.2934 68.2164 16.2659 69.6728 16.2659ZM69.6728 15.3939C68.819 15.3939 68.3397 14.7684 68.3397 13.6818C68.3397 12.6044 68.819 11.9744 69.6728 11.9744C70.522 11.9744 71.0059 12.6044 71.0059 13.6818C71.0059 14.7638 70.522 15.3939 69.6728 15.3939Z" fill="#222222"/>
<path d="M74.9395 15.4258C74.4053 15.4258 74.0172 15.1656 74.0172 14.7182C74.0172 14.2799 74.3277 14.0471 75.0125 14.0014L76.2269 13.9238V14.3393C76.2269 14.9556 75.6791 15.4258 74.9395 15.4258ZM74.6884 16.2522C75.3412 16.2522 75.8845 15.9691 76.1813 15.4715H76.2589V16.17H77.2039V12.7733C77.2039 11.7233 76.5008 11.1024 75.2545 11.1024C74.1268 11.1024 73.3233 11.6502 73.2229 12.504H74.1725C74.282 12.1524 74.661 11.9515 75.2088 11.9515C75.8799 11.9515 76.2269 12.2483 76.2269 12.7733V13.2025L74.8801 13.2801C73.6977 13.3531 73.0311 13.869 73.0311 14.7638C73.0311 15.6724 73.7296 16.2522 74.6884 16.2522Z" fill="#222222"/>
<path d="M80.5349 16.2522C81.2197 16.2522 81.7995 15.928 82.0962 15.3847H82.1738V16.17H83.1143V9.25793H82.1328V11.9881H82.0597C81.7903 11.4402 81.2151 11.1161 80.5349 11.1161C79.2794 11.1161 78.4713 12.1113 78.4713 13.6818C78.4713 15.2569 79.2702 16.2522 80.5349 16.2522ZM80.8133 11.9972C81.6351 11.9972 82.151 12.65 82.151 13.6864C82.151 14.7273 81.6397 15.371 80.8133 15.371C79.9824 15.371 79.4848 14.7364 79.4848 13.6818C79.4848 12.6364 79.987 11.9972 80.8133 11.9972Z" fill="#222222"/>
<path d="M89.4794 16.2659C90.9313 16.2659 91.8215 15.2934 91.8215 13.6818C91.8215 12.0794 90.9267 11.1024 89.4794 11.1024C88.0276 11.1024 87.1328 12.0794 87.1328 13.6818C87.1328 15.2934 88.0231 16.2659 89.4794 16.2659ZM89.4794 15.3939C88.6257 15.3939 88.1463 14.7684 88.1463 13.6818C88.1463 12.6044 88.6257 11.9744 89.4794 11.9744C90.3286 11.9744 90.8125 12.6044 90.8125 13.6818C90.8125 14.7638 90.3286 15.3939 89.4794 15.3939Z" fill="#222222"/>
<path d="M93.1208 16.17H94.1024V13.2618C94.1024 12.4857 94.5635 12.0018 95.2894 12.0018C96.0153 12.0018 96.3623 12.3989 96.3623 13.1979V16.17H97.3439V12.9514C97.3439 11.7689 96.7321 11.1024 95.6227 11.1024C94.874 11.1024 94.3809 11.4356 94.1389 11.9881H94.0659V11.1982H93.1208V16.17Z" fill="#222222"/>
<path d="M101.865 9.96101V11.2211H101.075V12.0474H101.865V14.8552C101.865 15.8139 102.298 16.1974 103.389 16.1974C103.581 16.1974 103.764 16.1746 103.924 16.1472V15.33C103.787 15.3437 103.7 15.3528 103.549 15.3528C103.061 15.3528 102.846 15.1245 102.846 14.6041V12.0474H103.924V11.2211H102.846V9.96101H101.865Z" fill="#222222"/>
<path d="M105.241 16.17H106.223V13.2664C106.223 12.5131 106.67 12.0063 107.474 12.0063C108.168 12.0063 108.537 12.4081 108.537 13.2025V16.17H109.519V12.9605C109.519 11.7781 108.866 11.1069 107.807 11.1069C107.058 11.1069 106.533 11.4402 106.291 11.9972H106.214V9.25793H105.241V16.17Z" fill="#222222"/>
<path d="M113.06 11.9378C113.786 11.9378 114.261 12.4446 114.283 13.2253H111.772C111.827 12.4492 112.334 11.9378 113.06 11.9378ZM114.279 14.8278C114.096 15.2158 113.69 15.4304 113.096 15.4304C112.311 15.4304 111.804 14.878 111.772 14.006V13.9512H115.283V13.6088C115.283 12.0474 114.448 11.1024 113.064 11.1024C111.663 11.1024 110.773 12.1113 110.773 13.7001C110.773 15.2889 111.645 16.2659 113.069 16.2659C114.206 16.2659 115 15.718 115.224 14.8278H114.279Z" fill="#222222"/>
<path d="M27.2458 22.3309C27.2696 20.4818 28.2627 18.7322 29.838 17.7637C28.8442 16.3443 27.1796 15.4444 25.4477 15.3902C23.6006 15.1963 21.8098 16.4955 20.8685 16.4955C19.909 16.4955 18.4598 15.4095 16.8992 15.4416C14.865 15.5073 12.9687 16.6638 11.979 18.4422C9.85158 22.1255 11.4384 27.5386 13.4763 30.5159C14.4959 31.9738 15.6875 33.6023 17.2467 33.5445C18.7725 33.4813 19.3423 32.5716 21.184 32.5716C23.0087 32.5716 23.5433 33.5445 25.1341 33.5078C26.7714 33.4813 27.8029 32.0435 28.7867 30.5718C29.5193 29.533 30.083 28.3849 30.457 27.17C28.5329 26.3562 27.248 24.42 27.2458 22.3309Z" fill="#222222"/>
<path d="M24.241 13.4322C25.1336 12.3606 25.5734 10.9832 25.4669 9.59253C24.1031 9.73577 22.8433 10.3876 21.9386 11.4181C21.0539 12.425 20.5935 13.7781 20.6805 15.1156C22.0448 15.1297 23.386 14.4955 24.241 13.4322Z" fill="#222222"/>
</svg>
