<svg width="24" height="24" viewBox="0 0 24 24" fill="none" xmlns="http://www.w3.org/2000/svg">
<path fill-rule="evenodd" clip-rule="evenodd" d="M3 6.80195V6.80195C3 7.40195 3.3 7.90195 3.8 8.30195L9.8 12.402C11.2 13.302 12.9 13.302 14.3 12.402L20.3 8.40195C20.7 7.90195 21 7.40195 21 6.80195V6.80195C21 5.80195 20.2 5.00195 19.2 5.00195H4.8C3.8 5.00195 3 5.80195 3 6.80195Z" stroke="#222222" stroke-width="1.5" stroke-linecap="round" stroke-linejoin="round"/>
<path d="M3 7.00195V17.002C3 18.102 3.9 19.002 5 19.002H19C20.1 19.002 21 18.102 21 17.002V7.00195" stroke="#222222" stroke-width="1.5" stroke-linecap="round" stroke-linejoin="round"/>
<path d="M3.58789 18.4124L9.68189 12.3184" stroke="#222222" stroke-width="1.5" stroke-linecap="round" stroke-linejoin="round"/>
<path d="M14.3594 12.3613L20.4114 18.4133" stroke="#222222" stroke-width="1.5" stroke-linecap="round" stroke-linejoin="round"/>
</svg>
