<svg width="60" height="38" viewBox="0 0 60 38" fill="none" xmlns="http://www.w3.org/2000/svg">
<path fill-rule="evenodd" clip-rule="evenodd" d="M6.58719 0.110361C3.26057 0.511782 0.848755 2.90819 0.193762 5.98239C-0.118699 7.44899 0.0406063 10.2727 0.0406063 11.9067L0.0401587 30.294C0.0493257 34.0288 2.29234 36.6367 5.07318 37.5538C6.7958 38.122 8.84473 37.9492 10.7377 37.9492H47.3922C49.2002 37.9492 51.7527 38.0965 53.4741 37.8894C56.7412 37.4961 59.1632 35.0368 59.8062 32.0155C60.1186 30.5479 59.9595 27.7261 59.9595 26.0912L59.9599 7.70382C59.9508 3.96867 57.7071 1.36083 54.9267 0.444147C53.2036 -0.123944 51.1556 0.0485577 49.2624 0.0485577H12.6078C10.8124 0.0485577 8.28487 -0.0944435 6.58719 0.110361V0.110361Z" fill="#FF3150"/>
<path fill-rule="evenodd" clip-rule="evenodd" d="M22.4749 26.4308C22.479 26.9184 22.48 26.7186 22.4953 27.2006C22.5197 27.4549 22.5034 27.3613 22.5158 27.4289C22.585 27.8031 22.7818 28.1972 23.1278 28.4792C23.3294 28.6183 23.6491 28.8665 24.2945 28.8622C24.6548 28.8397 25.0692 28.7316 25.4295 28.4057C25.6811 28.1172 25.9283 27.9147 25.9944 27.2012L26.0132 26.4308C26.006 25.7028 26.0132 20.8251 26.0132 19.0304C27.1348 19.0304 29.4199 19.0304 30.6162 19.029C31.4248 19.0281 31.8911 19.0765 32.4453 18.605C32.8828 18.2018 33.0789 17.7086 33.072 17.2325C33.0628 16.6113 32.7071 16.0188 32.0882 15.693C31.7366 15.5157 31.492 15.5082 31.1091 15.5096C30.7303 15.5108 30.3135 15.5153 29.902 15.5153C28.3565 15.5146 26.8856 15.5115 25.3401 15.5153C24.1951 15.4953 23.7334 15.4471 23.12 15.9401C22.8183 16.1827 22.5625 16.5364 22.4983 17.1607C22.4825 18.5621 22.4667 25.9865 22.4749 26.4308V26.4308Z" fill="white"/>
<path fill-rule="evenodd" clip-rule="evenodd" d="M48.7282 13.5329C51.079 13.5418 51.0765 10.0234 48.7452 10.0167L40.7379 10C38.3588 9.99643 38.3212 13.5186 40.7073 13.5276C42.7445 13.541 46.6919 13.525 48.7282 13.5329V13.5329Z" fill="white"/>
<path fill-rule="evenodd" clip-rule="evenodd" d="M13.0593 13.5484C19.2997 13.5484 23.2137 13.5402 29.4527 13.5504C29.7004 13.551 29.9523 13.5511 30.2055 13.5511C30.4589 13.5511 30.7142 13.5511 30.9686 13.5511C31.2231 13.5511 31.4722 13.5622 31.722 13.5842C31.9729 13.6062 32.2432 13.6794 32.4753 13.7481C32.7248 13.8218 32.8812 13.9107 33.1074 14.0277C33.3196 14.1373 33.5224 14.2858 33.6869 14.432C33.9408 14.6573 34.033 14.7475 34.1596 14.9172C34.3257 15.1394 34.3091 15.1087 34.4231 15.2886C34.528 15.454 34.638 15.678 34.7159 15.8721C34.794 16.0663 34.825 16.1714 34.872 16.3732C34.9191 16.5747 34.9242 16.6427 34.9488 16.835C34.9744 17.0377 34.9649 17.0742 34.9643 17.35C34.9533 17.5247 34.949 17.5849 34.9401 17.6496C34.9322 17.7062 34.9248 17.7645 34.9021 17.8924C34.8568 18.1479 34.8255 18.2109 34.7669 18.3976C34.7081 18.5842 34.5508 18.8982 34.4793 19.0254C34.4076 19.1528 34.3422 19.2657 34.2717 19.3443C34.1071 19.5277 34.0927 19.5621 34.0367 19.6348C33.9807 19.7073 33.9012 19.7713 33.8735 19.8049C33.8458 19.8387 33.8088 19.8729 33.7284 19.9396C33.6483 20.0065 33.6838 19.9745 33.4704 20.1466C33.4175 20.1843 33.3421 20.2378 33.2796 20.2767C33.224 20.3114 33.1156 20.387 33.0107 20.4322C32.902 20.479 32.838 20.5317 32.6519 20.5956C32.366 20.6939 32.3363 20.7137 32.0232 20.7777C31.9236 20.7982 31.8177 20.8129 31.7089 20.8233C31.6 20.834 31.4878 20.8407 31.3756 20.8453C31.2634 20.8501 31.1508 20.8529 31.0412 20.8556C30.9315 20.8586 30.8243 20.8614 30.7232 20.8662C30.1772 20.8924 29.7746 21.0605 29.4914 21.3069C29.2084 21.5534 29.0441 21.8786 28.9749 22.2188C28.9405 22.389 28.9294 22.563 28.9389 22.7328C28.9487 22.9026 28.9787 23.0683 29.0264 23.222C29.074 23.3755 29.166 23.5236 29.2429 23.6428C29.3199 23.762 29.372 23.8422 29.4982 23.9368C31.5194 25.4513 33.617 27.0583 35.6719 28.4935C35.9122 28.6614 35.8512 28.6336 36.0746 28.7246C36.3097 28.8205 36.5622 28.8462 36.6994 28.855C36.9532 28.8712 37.2304 28.7988 37.4126 28.724C37.5978 28.6479 37.7719 28.5344 37.9104 28.4141C38.0489 28.2938 38.1376 28.1902 38.2605 27.9921C38.3776 27.8033 38.4552 27.5966 38.5023 27.3055C38.5223 27.1811 38.5021 26.9988 38.495 26.8798C38.4866 26.7357 38.4282 26.5667 38.3826 26.4377C38.3383 26.3131 38.2524 26.1422 38.1416 26.0154C38.0358 25.8937 38.075 25.9279 37.9138 25.7709C37.9126 25.7696 37.8375 25.7031 37.7504 25.6424C36.7029 24.9123 35.7379 24.1105 34.7152 23.3694C34.6466 23.3197 34.7955 23.2842 34.9254 23.2115C34.9659 23.1889 35.0711 23.1153 35.1352 23.0859C35.1991 23.0564 35.2036 23.0348 35.2817 22.992C35.3597 22.9491 35.4552 22.871 35.5401 22.8137C35.625 22.7565 35.6362 22.7458 35.7286 22.6723C35.8159 22.6029 35.8769 22.5534 35.9634 22.4825C36.05 22.4114 36.0433 22.4144 36.1218 22.3445C36.2019 22.2733 36.3284 22.1494 36.3984 22.0825C36.4703 22.0138 36.4945 21.9837 36.552 21.9245C36.608 21.867 36.6345 21.8375 36.6862 21.7778C36.7411 21.7191 36.7541 21.6983 36.8048 21.6412C36.8552 21.5846 36.8765 21.5534 36.9241 21.4962C36.9718 21.4393 37.0067 21.3942 37.0496 21.3349C37.0924 21.2755 37.1386 21.2224 37.1771 21.1608C37.2155 21.0992 37.2355 21.0824 37.2737 21.021C37.3148 20.9548 37.3752 20.8731 37.4101 20.8104C37.4454 20.7474 37.4875 20.6875 37.522 20.6249C37.5899 20.5017 37.6108 20.4652 37.6764 20.3444C37.7401 20.2271 37.7653 20.1865 37.816 20.062C37.8675 19.9357 37.9001 19.8945 37.9474 19.7627C37.9945 19.6317 38.0007 19.6339 38.0511 19.504C38.1088 19.3612 38.1252 19.2836 38.1763 19.1195C38.2314 18.9428 38.229 18.9416 38.2739 18.7619C38.314 18.6017 38.3293 18.5181 38.3561 18.3827C38.4065 18.1292 38.4429 17.9242 38.4561 17.8373C38.4848 17.6525 38.4829 17.5767 38.4869 17.4217C38.4901 17.2961 38.4862 17.0761 38.4764 16.9267C38.4666 16.777 38.4676 16.6188 38.4518 16.4583C38.436 16.2978 38.4027 16.0623 38.3826 15.9044C38.3627 15.7466 38.3333 15.62 38.2955 15.4646C38.2576 15.3094 38.206 15.11 38.1584 14.9587C38.1108 14.8075 38.0348 14.5985 37.98 14.4545C37.9254 14.3112 37.9043 14.2684 37.8456 14.1386C37.7849 14.004 37.7458 13.9372 37.6867 13.8244C37.6307 13.7179 37.6075 13.6726 37.5552 13.5701C37.5028 13.4674 37.4551 13.4054 37.3946 13.3015C37.334 13.1978 37.2954 13.1624 37.2252 13.0447C37.1547 12.9267 37.1427 12.9419 37.0785 12.8404C37.0145 12.7387 36.9842 12.7284 36.924 12.6402C36.8639 12.5521 36.8608 12.5701 36.8021 12.4922C36.7434 12.4146 36.7092 12.3881 36.6493 12.3177C36.5892 12.2473 36.5198 12.1848 36.4497 12.1058C36.3794 12.0267 36.3307 11.9886 36.2463 11.9066C36.1621 11.8244 36.193 11.849 36.106 11.7783C36.0845 11.7606 36.0067 11.6881 35.9811 11.6693C35.9553 11.6504 35.8889 11.5875 35.8578 11.567C35.8269 11.5463 35.7714 11.4915 35.7333 11.4679C35.6955 11.4446 35.6325 11.3834 35.5861 11.3566C35.5395 11.3298 35.5166 11.3018 35.4606 11.2666C35.3897 11.2219 35.3382 11.1807 35.2715 11.138C35.1984 11.0913 35.1753 11.0725 35.1021 11.0305C35.0022 10.9732 34.9571 10.9416 34.8757 10.8986C34.793 10.8548 34.7627 10.8598 34.6825 10.8131C34.5965 10.7631 34.5232 10.7286 34.4303 10.6857C34.3269 10.6379 34.2579 10.5955 34.1639 10.5547C34.0784 10.5177 33.9748 10.4771 33.8954 10.4393C33.7368 10.3638 33.6712 10.3472 33.4309 10.2703C33.344 10.2424 33.1822 10.1902 33.0475 10.1607C32.9459 10.1384 32.8887 10.1211 32.7276 10.0907C32.5381 10.0611 32.4939 10.04 32.157 10.0327C31.9717 10.0288 31.7483 10.0264 31.5608 10.0261C30.81 10.0245 30.0723 10.0261 29.3587 10.0246C29.3587 10.0246 13.4704 10.0047 13.0902 10.0186C12.4943 10.0208 12.007 10.0114 11.6078 10.0351C11.1939 10.0596 10.8751 10.2157 10.6211 10.4344C9.73501 11.1962 9.76911 12.7347 10.9039 13.3398C11.0958 13.4422 11.3341 13.5282 11.5896 13.5419C12.0373 13.5655 12.5518 13.5486 13.0593 13.5484V13.5484Z" fill="white"/>
<path fill-rule="evenodd" clip-rule="evenodd" d="M20.6326 26.4133C20.6284 26.901 20.6273 26.701 20.6121 27.1831C20.5877 27.4373 20.6039 27.3437 20.5914 27.4115C20.5224 27.7857 20.3255 28.1796 19.9795 28.4617C19.7779 28.6007 19.4584 28.849 18.813 28.8447C18.4525 28.8221 18.0381 28.714 17.6779 28.388C17.4263 28.0996 17.1792 27.8971 17.1129 27.1835L17.0943 26.4133C17.1015 25.6853 17.0943 20.8076 17.0943 19.0128C15.9724 19.0128 13.6876 19.0128 12.4913 19.0114C11.6827 19.0105 11.2161 19.0589 10.6622 18.5875C10.2244 18.1842 10.0285 17.691 10.0353 17.2149C10.0446 16.5937 10.4003 16.0013 11.0191 15.6755C11.3709 15.4981 11.6153 15.4906 11.9983 15.492C12.3771 15.4932 12.7938 15.4977 13.2055 15.4977C14.7509 15.4969 16.2218 15.4941 17.7673 15.4977C18.9121 15.4777 19.374 15.4295 19.9873 15.9225C20.2891 16.1652 20.5448 16.5188 20.6092 17.1431C20.6247 18.5445 20.6407 25.9689 20.6326 26.4133V26.4133Z" fill="white"/>
<path fill-rule="evenodd" clip-rule="evenodd" d="M48.7757 21.2043C51.1269 21.2134 51.124 17.6949 48.7926 17.6884L41.9841 17.6738C39.6048 17.6705 39.5673 21.1927 41.9534 21.2017C43.9906 21.2151 46.7393 21.1963 48.7757 21.2043Z" fill="white"/>
<path fill-rule="evenodd" clip-rule="evenodd" d="M48.801 28.8501C51.1523 28.8594 51.1494 25.3408 48.8179 25.3341L42.1463 25.3242C39.7669 25.3206 39.7294 28.8429 42.1155 28.8521C44.1527 28.8652 46.7644 28.8422 48.801 28.8501Z" fill="white"/>
</svg>
