<svg width="186" height="41" viewBox="0 0 186 41" fill="none" xmlns="http://www.w3.org/2000/svg">
<path fill-rule="evenodd" clip-rule="evenodd" d="M7.02633 0.117333C3.47794 0.544113 0.905339 3.09191 0.206679 6.36032C-0.126612 7.91957 0.0433134 10.9217 0.0433134 12.6589L0.0428359 32.2078C0.0526141 36.1785 2.44516 38.9512 5.41139 39.9262C7.24885 40.5303 9.43438 40.3466 11.4536 40.3466H50.5517C52.4802 40.3466 55.2029 40.5032 57.039 40.2829C60.524 39.8649 63.1074 37.2502 63.7933 34.038C64.1265 32.4777 63.9568 29.4776 63.9568 27.7395L63.9573 8.1905C63.9475 4.21938 61.5542 1.4468 58.5885 0.472205C56.7505 -0.131774 54.566 0.0516253 52.5465 0.0516253H13.4483C11.5332 0.0516253 8.8372 -0.10041 7.02633 0.117333V0.117333Z" fill="#EC1E25"/>
<path fill-rule="evenodd" clip-rule="evenodd" d="M24.3382 26.9465C24.3422 27.434 24.3433 27.2342 24.3586 27.7162C24.383 27.9705 24.3667 27.8769 24.3791 27.9445C24.4483 28.3187 24.6451 28.7128 24.9911 28.9949C25.1927 29.1339 25.5124 29.3822 26.1578 29.3779C26.5181 29.3553 26.9325 29.2472 27.2927 28.9213C27.5443 28.6328 27.7915 28.4303 27.8577 27.7168L27.8764 26.9465C27.8693 26.2185 27.8764 21.3407 27.8764 19.5461C28.9981 19.5461 31.2832 19.5461 32.4794 19.5446C33.288 19.5437 33.7544 19.5921 34.3085 19.1206C34.7461 18.7174 34.9422 18.2242 34.9353 17.7481C34.9261 17.1269 34.5704 16.5344 33.9515 16.2086C33.5999 16.0313 33.3553 16.0238 32.9724 16.0252C32.5936 16.0264 32.1768 16.031 31.7653 16.031C30.2197 16.0302 28.7488 16.0271 27.2034 16.031C26.0584 16.0109 25.5967 15.9627 24.9833 16.4557C24.6816 16.6984 24.4258 17.0521 24.3616 17.6763C24.3458 19.0777 24.33 26.5021 24.3382 26.9465V26.9465Z" fill="white"/>
<path fill-rule="evenodd" clip-rule="evenodd" d="M50.5935 14.0485C52.9443 14.0575 52.9418 10.539 50.6104 10.5323L42.6032 10.5156C40.224 10.5121 40.1864 14.0342 42.5725 14.0433C44.6097 14.0566 48.5571 14.0406 50.5935 14.0485V14.0485Z" fill="white"/>
<path fill-rule="evenodd" clip-rule="evenodd" d="M14.9226 14.064C21.163 14.064 25.077 14.0559 31.316 14.066C31.5637 14.0666 31.8155 14.0667 32.0688 14.0667C32.3222 14.0667 32.5775 14.0667 32.8319 14.0667C33.0863 14.0667 33.3354 14.0778 33.5853 14.0999C33.8362 14.1218 34.1065 14.195 34.3385 14.2637C34.5881 14.3374 34.7445 14.4264 34.9707 14.5433C35.1829 14.6529 35.3856 14.8014 35.5502 14.9476C35.8041 15.173 35.8962 15.2631 36.0229 15.4328C36.189 15.6551 36.1724 15.6243 36.2864 15.8042C36.3912 15.9696 36.5013 16.1936 36.5792 16.3877C36.6573 16.582 36.6883 16.687 36.7353 16.8888C36.7824 17.0903 36.7875 17.1583 36.8121 17.3506C36.8377 17.5533 36.8281 17.5898 36.8276 17.8656C36.8166 18.0403 36.8123 18.1006 36.8033 18.1652C36.7955 18.2218 36.7881 18.2801 36.7654 18.408C36.7201 18.6635 36.6888 18.7265 36.6302 18.9132C36.5714 19.0998 36.4141 19.4138 36.3426 19.541C36.2709 19.6684 36.2054 19.7813 36.135 19.8599C35.9704 20.0433 35.956 20.0778 35.8999 20.1504C35.844 20.2229 35.7645 20.2869 35.7368 20.3206C35.709 20.3543 35.6721 20.3885 35.5917 20.4552C35.5116 20.5221 35.5471 20.4901 35.3336 20.6622C35.2808 20.6999 35.2053 20.7534 35.1429 20.7923C35.0873 20.827 34.9789 20.9026 34.874 20.9478C34.7653 20.9946 34.7013 21.0474 34.5151 21.1113C34.2293 21.2095 34.1996 21.2293 33.8865 21.2934C33.7869 21.3139 33.681 21.3285 33.5721 21.3389C33.4633 21.3496 33.3511 21.3563 33.2389 21.361C33.1267 21.3657 33.0141 21.3685 32.9045 21.3712C32.7948 21.3742 32.6876 21.3771 32.5865 21.3818C32.0404 21.4081 31.6379 21.5761 31.3547 21.8226C31.0717 22.069 30.9074 22.3942 30.8382 22.7344C30.8037 22.9046 30.7927 23.0786 30.8022 23.2484C30.812 23.4182 30.842 23.5839 30.8897 23.7377C30.9373 23.8911 31.0292 24.0392 31.1062 24.1585C31.1832 24.2776 31.2353 24.3578 31.3615 24.4524C33.3827 25.9669 35.4803 27.5739 37.5352 29.0091C37.7754 29.177 37.7145 29.1493 37.9379 29.2402C38.173 29.3361 38.4254 29.3619 38.5627 29.3706C38.8165 29.3868 39.0937 29.3144 39.2759 29.2396C39.4611 29.1636 39.6352 29.05 39.7736 28.9297C39.9122 28.8094 40.0009 28.7058 40.1237 28.5077C40.2408 28.3189 40.3185 28.1122 40.3656 27.8211C40.3856 27.6967 40.3653 27.5144 40.3583 27.3954C40.3498 27.2513 40.2915 27.0824 40.2458 26.9533C40.2016 26.8287 40.1156 26.6579 40.0049 26.531C39.8991 26.4094 39.9383 26.4436 39.7771 26.2865C39.7759 26.2852 39.7008 26.2187 39.6137 26.158C38.5662 25.428 37.6012 24.6262 36.5785 23.885C36.5099 23.8353 36.6588 23.7998 36.7887 23.7272C36.8292 23.7045 36.9344 23.6309 36.9984 23.6015C37.0623 23.572 37.0669 23.5504 37.145 23.5076C37.223 23.4647 37.3185 23.3866 37.4034 23.3294C37.4883 23.2721 37.4995 23.2614 37.5919 23.1879C37.6792 23.1185 37.7401 23.069 37.8267 22.9981C37.9133 22.927 37.9066 22.93 37.9851 22.8601C38.0652 22.7889 38.1917 22.665 38.2617 22.5981C38.3336 22.5295 38.3578 22.4993 38.4153 22.4401C38.4712 22.3827 38.4978 22.3531 38.5495 22.2935C38.6044 22.2347 38.6174 22.2139 38.6681 22.1568C38.7184 22.1002 38.7398 22.0691 38.7874 22.0118C38.8351 21.9549 38.87 21.9099 38.9129 21.8505C38.9557 21.7911 39.0019 21.738 39.0404 21.6764C39.0788 21.6148 39.0988 21.598 39.137 21.5366C39.1781 21.4704 39.2385 21.3888 39.2734 21.326C39.3087 21.2631 39.3508 21.2031 39.3853 21.1405C39.4532 21.0173 39.4741 20.9808 39.5397 20.86C39.6034 20.7427 39.6286 20.7021 39.6793 20.5776C39.7308 20.4514 39.7634 20.4101 39.8107 20.2783C39.8578 20.1473 39.864 20.1496 39.9143 20.0196C39.9721 19.8768 39.9885 19.7992 40.0396 19.6351C40.0946 19.4584 40.0923 19.4572 40.1372 19.2775C40.1773 19.1174 40.1925 19.0338 40.2194 18.8983C40.2698 18.6448 40.3062 18.4398 40.3194 18.3529C40.348 18.1682 40.3461 18.0923 40.3502 17.9373C40.3534 17.8117 40.3495 17.5917 40.3397 17.4423C40.3299 17.2927 40.3309 17.1344 40.3151 16.9739C40.2993 16.8134 40.266 16.5779 40.2458 16.42C40.2259 16.2623 40.1966 16.1356 40.1588 15.9803C40.1209 15.825 40.0692 15.6256 40.0217 15.4743C39.9741 15.3231 39.8981 15.1142 39.8433 14.9701C39.7887 14.8268 39.7676 14.784 39.7089 14.6542C39.6482 14.5196 39.6091 14.4528 39.5499 14.34C39.494 14.2335 39.4708 14.1882 39.4185 14.0857C39.3661 13.983 39.3184 13.921 39.2579 13.8171C39.1973 13.7134 39.1587 13.678 39.0885 13.5603C39.018 13.4423 39.0059 13.4575 38.9418 13.356C38.8777 13.2543 38.8475 13.244 38.7872 13.1558C38.7271 13.0677 38.724 13.0857 38.6654 13.0078C38.6067 12.9302 38.5725 12.9037 38.5126 12.8334C38.4525 12.7629 38.3831 12.7004 38.313 12.6215C38.2426 12.5423 38.194 12.5042 38.1096 12.4222C38.0254 12.34 38.0563 12.3646 37.9693 12.2939C37.9477 12.2762 37.87 12.2037 37.8444 12.1849C37.8186 12.1661 37.7522 12.1031 37.7211 12.0826C37.6902 12.062 37.6347 12.0071 37.5966 11.9835C37.5588 11.9602 37.4958 11.8991 37.4494 11.8722C37.4028 11.8454 37.3799 11.8174 37.3239 11.7822C37.253 11.7375 37.2015 11.6964 37.1347 11.6537C37.0616 11.6069 37.0386 11.5881 36.9654 11.5461C36.8655 11.4889 36.8204 11.4573 36.739 11.4142C36.6563 11.3705 36.626 11.3755 36.5458 11.3287C36.4598 11.2788 36.3865 11.2442 36.2936 11.2014C36.1902 11.1535 36.1211 11.1111 36.0272 11.0703C35.9417 11.0333 35.8381 10.9927 35.7586 10.9549C35.6 10.8794 35.5345 10.8628 35.2942 10.7859C35.2072 10.758 35.0454 10.7058 34.9108 10.6763C34.8092 10.654 34.752 10.6367 34.5909 10.6063C34.4014 10.5768 34.3571 10.5556 34.0203 10.5484C33.835 10.5444 33.6116 10.5421 33.424 10.5417C32.6733 10.5401 31.9356 10.5417 31.2219 10.5403C31.2219 10.5403 15.3337 10.5204 14.9535 10.5342C14.3576 10.5365 13.8703 10.527 13.471 10.5508C13.0571 10.5752 12.7384 10.7313 12.4844 10.95C11.5983 11.7119 11.6324 13.2504 12.7671 13.8554C12.9591 13.9578 13.1974 14.0438 13.4529 14.0575C13.9006 14.0811 14.4151 14.0642 14.9226 14.064V14.064Z" fill="white"/>
<path fill-rule="evenodd" clip-rule="evenodd" d="M22.4958 26.9289C22.4917 27.4166 22.4906 27.2166 22.4753 27.6987C22.451 27.953 22.4672 27.8594 22.4547 27.9271C22.3857 28.3013 22.1888 28.6953 21.8427 28.9773C21.6412 29.1163 21.3216 29.3646 20.6763 29.3603C20.3158 29.3378 19.9014 29.2296 19.5412 28.9036C19.2896 28.6152 19.0425 28.4128 18.9762 27.6991L18.9576 26.9289C18.9647 26.2009 18.9576 21.3233 18.9576 19.5284C17.8357 19.5284 15.5509 19.5284 14.3546 19.5271C13.546 19.5261 13.0794 19.5745 12.5255 19.1032C12.0877 18.6999 11.8918 18.2067 11.8986 17.7305C11.9079 17.1094 12.2636 16.5169 12.8824 16.1912C13.2342 16.0137 13.4786 16.0062 13.8616 16.0077C14.2404 16.0088 14.6571 16.0134 15.0688 16.0134C16.6142 16.0125 18.0851 16.0097 19.6306 16.0134C20.7754 15.9933 21.2373 15.9452 21.8506 16.4381C22.1524 16.6808 22.4081 17.0345 22.4725 17.6587C22.488 19.0601 22.504 26.4846 22.4958 26.9289V26.9289Z" fill="white"/>
<path fill-rule="evenodd" clip-rule="evenodd" d="M50.6409 21.72C52.9922 21.729 52.9892 18.2106 50.6578 18.204L43.8494 18.1895C41.4701 18.1861 41.4325 21.7083 43.8186 21.7173C45.8558 21.7307 48.6045 21.712 50.6409 21.72Z" fill="white"/>
<path fill-rule="evenodd" clip-rule="evenodd" d="M50.6643 29.3657C53.0156 29.375 53.0127 25.8564 50.6812 25.8497L44.0095 25.8398C41.6302 25.8363 41.5927 29.3585 43.9788 29.3677C46.016 29.3808 48.6277 29.3578 50.6643 29.3657Z" fill="white"/>
<path d="M83.0312 9.98047V14.4883C82.8542 14.7018 82.5807 14.9336 82.2109 15.1836C81.8411 15.4284 81.3646 15.6393 80.7812 15.8164C80.1979 15.9935 79.4922 16.082 78.6641 16.082C77.9297 16.082 77.2604 15.9622 76.6562 15.7227C76.0521 15.4779 75.5312 15.1211 75.0938 14.6523C74.6615 14.1836 74.3281 13.6107 74.0938 12.9336C73.8594 12.2513 73.7422 11.4727 73.7422 10.5977V9.88672C73.7422 9.01172 73.8542 8.23307 74.0781 7.55078C74.3073 6.86849 74.6328 6.29297 75.0547 5.82422C75.4766 5.35547 75.9792 4.9987 76.5625 4.75391C77.1458 4.50911 77.7943 4.38672 78.5078 4.38672C79.4974 4.38672 80.3099 4.54818 80.9453 4.87109C81.5807 5.1888 82.0651 5.63151 82.3984 6.19922C82.737 6.76172 82.9453 7.40755 83.0234 8.13672H80.75C80.6927 7.7513 80.5833 7.41536 80.4219 7.12891C80.2604 6.84245 80.0286 6.61849 79.7266 6.45703C79.4297 6.29557 79.0443 6.21484 78.5703 6.21484C78.1797 6.21484 77.8307 6.29557 77.5234 6.45703C77.2214 6.61328 76.9661 6.84505 76.7578 7.15234C76.5495 7.45964 76.3906 7.83984 76.2812 8.29297C76.1719 8.74609 76.1172 9.27214 76.1172 9.87109V10.5977C76.1172 11.1914 76.1745 11.7174 76.2891 12.1758C76.4036 12.6289 76.5729 13.0117 76.7969 13.3242C77.026 13.6315 77.3073 13.8633 77.6406 14.0195C77.974 14.1758 78.362 14.2539 78.8047 14.2539C79.1745 14.2539 79.4818 14.2227 79.7266 14.1602C79.9766 14.0977 80.1771 14.0221 80.3281 13.9336C80.4844 13.8398 80.6042 13.7513 80.6875 13.668V11.6523H78.5469V9.98047H83.0312ZM88.6719 16.082C88.0156 16.082 87.4271 15.9779 86.9062 15.7695C86.3854 15.556 85.9427 15.2617 85.5781 14.8867C85.2188 14.5117 84.9427 14.0768 84.75 13.582C84.5573 13.082 84.4609 12.5508 84.4609 11.9883V11.6758C84.4609 11.0352 84.5521 10.4492 84.7344 9.91797C84.9167 9.38672 85.1771 8.92578 85.5156 8.53516C85.8594 8.14453 86.276 7.84505 86.7656 7.63672C87.2552 7.42318 87.8073 7.31641 88.4219 7.31641C89.0208 7.31641 89.5521 7.41536 90.0156 7.61328C90.4792 7.8112 90.8672 8.09245 91.1797 8.45703C91.4974 8.82161 91.737 9.25911 91.8984 9.76953C92.0599 10.2747 92.1406 10.8372 92.1406 11.457V12.3945H85.4219V10.8945H89.9297V10.7227C89.9297 10.4102 89.8724 10.1315 89.7578 9.88672C89.6484 9.63672 89.4818 9.4388 89.2578 9.29297C89.0339 9.14714 88.7474 9.07422 88.3984 9.07422C88.1016 9.07422 87.8464 9.13932 87.6328 9.26953C87.4193 9.39974 87.2448 9.58203 87.1094 9.81641C86.9792 10.0508 86.8802 10.3268 86.8125 10.6445C86.75 10.957 86.7188 11.3008 86.7188 11.6758V11.9883C86.7188 12.3268 86.7656 12.6393 86.8594 12.9258C86.9583 13.2122 87.0964 13.4596 87.2734 13.668C87.4557 13.8763 87.6745 14.0378 87.9297 14.1523C88.1901 14.2669 88.4844 14.3242 88.8125 14.3242C89.2188 14.3242 89.5964 14.2461 89.9453 14.0898C90.2995 13.9284 90.6042 13.6862 90.8594 13.3633L91.9531 14.5508C91.776 14.806 91.5339 15.0508 91.2266 15.2852C90.9245 15.5195 90.5599 15.7122 90.1328 15.8633C89.7057 16.0091 89.2188 16.082 88.6719 16.082ZM93.0625 11.7852V11.6211C93.0625 11.0013 93.151 10.431 93.3281 9.91016C93.5052 9.38411 93.763 8.92839 94.1016 8.54297C94.4401 8.15755 94.8568 7.85807 95.3516 7.64453C95.8464 7.42578 96.4141 7.31641 97.0547 7.31641C97.6953 7.31641 98.2656 7.42578 98.7656 7.64453C99.2656 7.85807 99.6849 8.15755 100.023 8.54297C100.367 8.92839 100.628 9.38411 100.805 9.91016C100.982 10.431 101.07 11.0013 101.07 11.6211V11.7852C101.07 12.3997 100.982 12.9701 100.805 13.4961C100.628 14.0169 100.367 14.4727 100.023 14.8633C99.6849 15.2487 99.2682 15.5482 98.7734 15.7617C98.2786 15.9753 97.7109 16.082 97.0703 16.082C96.4297 16.082 95.8594 15.9753 95.3594 15.7617C94.8646 15.5482 94.4453 15.2487 94.1016 14.8633C93.763 14.4727 93.5052 14.0169 93.3281 13.4961C93.151 12.9701 93.0625 12.3997 93.0625 11.7852ZM95.3125 11.6211V11.7852C95.3125 12.1393 95.3438 12.4701 95.4062 12.7773C95.4688 13.0846 95.5677 13.3555 95.7031 13.5898C95.8438 13.819 96.026 13.9987 96.25 14.1289C96.474 14.2591 96.7474 14.3242 97.0703 14.3242C97.3828 14.3242 97.651 14.2591 97.875 14.1289C98.099 13.9987 98.2786 13.819 98.4141 13.5898C98.5495 13.3555 98.6484 13.0846 98.7109 12.7773C98.7786 12.4701 98.8125 12.1393 98.8125 11.7852V11.6211C98.8125 11.2773 98.7786 10.9544 98.7109 10.6523C98.6484 10.3451 98.5469 10.0742 98.4062 9.83984C98.2708 9.60026 98.0911 9.41276 97.8672 9.27734C97.6432 9.14193 97.3724 9.07422 97.0547 9.07422C96.737 9.07422 96.4661 9.14193 96.2422 9.27734C96.0234 9.41276 95.8438 9.60026 95.7031 9.83984C95.5677 10.0742 95.4688 10.3451 95.4062 10.6523C95.3438 10.9544 95.3125 11.2773 95.3125 11.6211ZM104.703 9.31641V15.9258H102.453V7.47266H104.57L104.703 9.31641ZM107.25 7.41797L107.211 9.50391C107.102 9.48828 106.969 9.47526 106.812 9.46484C106.661 9.44922 106.523 9.44141 106.398 9.44141C106.081 9.44141 105.805 9.48307 105.57 9.56641C105.341 9.64453 105.148 9.76172 104.992 9.91797C104.841 10.0742 104.727 10.2643 104.648 10.4883C104.576 10.7122 104.534 10.9674 104.523 11.2539L104.07 11.1133C104.07 10.5664 104.125 10.0638 104.234 9.60547C104.344 9.14193 104.503 8.73828 104.711 8.39453C104.924 8.05078 105.185 7.78516 105.492 7.59766C105.799 7.41016 106.151 7.31641 106.547 7.31641C106.672 7.31641 106.799 7.32682 106.93 7.34766C107.06 7.36328 107.167 7.38672 107.25 7.41797ZM113.508 7.47266H115.547V15.6445C115.547 16.4154 115.375 17.069 115.031 17.6055C114.693 18.1471 114.219 18.556 113.609 18.832C113 19.1133 112.292 19.2539 111.484 19.2539C111.13 19.2539 110.755 19.207 110.359 19.1133C109.969 19.0195 109.594 18.8737 109.234 18.6758C108.88 18.4779 108.583 18.2279 108.344 17.9258L109.336 16.5977C109.596 16.8997 109.898 17.1341 110.242 17.3008C110.586 17.4727 110.966 17.5586 111.383 17.5586C111.789 17.5586 112.133 17.4831 112.414 17.332C112.695 17.1862 112.911 16.9701 113.062 16.6836C113.214 16.4023 113.289 16.0612 113.289 15.6602V9.42578L113.508 7.47266ZM107.82 11.8008V11.6367C107.82 10.9909 107.898 10.4049 108.055 9.87891C108.216 9.34766 108.443 8.89193 108.734 8.51172C109.031 8.13151 109.391 7.83724 109.812 7.62891C110.234 7.42057 110.711 7.31641 111.242 7.31641C111.805 7.31641 112.276 7.42057 112.656 7.62891C113.036 7.83724 113.349 8.13411 113.594 8.51953C113.839 8.89974 114.029 9.35026 114.164 9.87109C114.305 10.3867 114.414 10.9518 114.492 11.5664V11.9258C114.414 12.5143 114.297 13.0612 114.141 13.5664C113.984 14.0716 113.779 14.5143 113.523 14.8945C113.268 15.2695 112.951 15.5612 112.57 15.7695C112.195 15.9779 111.747 16.082 111.227 16.082C110.706 16.082 110.234 15.9753 109.812 15.7617C109.396 15.5482 109.039 15.2487 108.742 14.8633C108.445 14.4779 108.216 14.0247 108.055 13.5039C107.898 12.9831 107.82 12.4154 107.82 11.8008ZM110.07 11.6367V11.8008C110.07 12.1497 110.104 12.4753 110.172 12.7773C110.24 13.0794 110.344 13.3477 110.484 13.582C110.63 13.8112 110.81 13.9909 111.023 14.1211C111.242 14.2461 111.5 14.3086 111.797 14.3086C112.208 14.3086 112.544 14.2227 112.805 14.0508C113.065 13.8737 113.26 13.6315 113.391 13.3242C113.521 13.0169 113.596 12.6628 113.617 12.2617V11.2383C113.607 10.9102 113.562 10.6159 113.484 10.3555C113.406 10.0898 113.297 9.86328 113.156 9.67578C113.016 9.48828 112.833 9.34245 112.609 9.23828C112.385 9.13411 112.12 9.08203 111.812 9.08203C111.516 9.08203 111.258 9.14974 111.039 9.28516C110.826 9.41536 110.646 9.59505 110.5 9.82422C110.359 10.0534 110.253 10.3242 110.18 10.6367C110.107 10.944 110.07 11.2773 110.07 11.6367ZM119.672 7.47266V15.9258H117.414V7.47266H119.672ZM117.273 5.26953C117.273 4.94141 117.388 4.67057 117.617 4.45703C117.846 4.24349 118.154 4.13672 118.539 4.13672C118.919 4.13672 119.224 4.24349 119.453 4.45703C119.688 4.67057 119.805 4.94141 119.805 5.26953C119.805 5.59766 119.688 5.86849 119.453 6.08203C119.224 6.29557 118.919 6.40234 118.539 6.40234C118.154 6.40234 117.846 6.29557 117.617 6.08203C117.388 5.86849 117.273 5.59766 117.273 5.26953ZM126.094 14.0195V10.2539C126.094 9.98307 126.049 9.7513 125.961 9.55859C125.872 9.36068 125.734 9.20703 125.547 9.09766C125.365 8.98828 125.128 8.93359 124.836 8.93359C124.586 8.93359 124.37 8.97786 124.188 9.06641C124.005 9.14974 123.865 9.27214 123.766 9.43359C123.667 9.58984 123.617 9.77474 123.617 9.98828H121.367C121.367 9.62891 121.451 9.28776 121.617 8.96484C121.784 8.64193 122.026 8.35807 122.344 8.11328C122.661 7.86328 123.039 7.66797 123.477 7.52734C123.919 7.38672 124.414 7.31641 124.961 7.31641C125.617 7.31641 126.201 7.42578 126.711 7.64453C127.221 7.86328 127.622 8.19141 127.914 8.62891C128.211 9.06641 128.359 9.61328 128.359 10.2695V13.8867C128.359 14.3503 128.388 14.7305 128.445 15.0273C128.503 15.319 128.586 15.5742 128.695 15.793V15.9258H126.422C126.312 15.6966 126.229 15.4102 126.172 15.0664C126.12 14.7174 126.094 14.3685 126.094 14.0195ZM126.391 10.7773L126.406 12.0508H125.148C124.852 12.0508 124.594 12.0846 124.375 12.1523C124.156 12.2201 123.977 12.3164 123.836 12.4414C123.695 12.5612 123.591 12.7018 123.523 12.8633C123.461 13.0247 123.43 13.2018 123.43 13.3945C123.43 13.5872 123.474 13.7617 123.562 13.918C123.651 14.069 123.779 14.1888 123.945 14.2773C124.112 14.3607 124.307 14.4023 124.531 14.4023C124.87 14.4023 125.164 14.3346 125.414 14.1992C125.664 14.0638 125.857 13.8971 125.992 13.6992C126.133 13.5013 126.206 13.3138 126.211 13.1367L126.805 14.0898C126.721 14.3034 126.607 14.5247 126.461 14.7539C126.32 14.9831 126.141 15.1992 125.922 15.4023C125.703 15.6003 125.44 15.7643 125.133 15.8945C124.826 16.0195 124.461 16.082 124.039 16.082C123.503 16.082 123.016 15.9753 122.578 15.7617C122.146 15.543 121.802 15.2435 121.547 14.8633C121.297 14.4779 121.172 14.0404 121.172 13.5508C121.172 13.1081 121.255 12.7148 121.422 12.3711C121.589 12.0273 121.833 11.7383 122.156 11.5039C122.484 11.2643 122.893 11.0846 123.383 10.9648C123.872 10.8398 124.44 10.7773 125.086 10.7773H126.391ZM132.297 9.27734V15.9258H130.047V7.47266H132.156L132.297 9.27734ZM131.969 11.4023H131.359C131.359 10.7773 131.44 10.2148 131.602 9.71484C131.763 9.20964 131.99 8.77995 132.281 8.42578C132.573 8.06641 132.919 7.79297 133.32 7.60547C133.727 7.41276 134.18 7.31641 134.68 7.31641C135.076 7.31641 135.438 7.3737 135.766 7.48828C136.094 7.60286 136.375 7.78516 136.609 8.03516C136.849 8.28516 137.031 8.61589 137.156 9.02734C137.286 9.4388 137.352 9.94141 137.352 10.5352V15.9258H135.086V10.5273C135.086 10.1523 135.034 9.86068 134.93 9.65234C134.826 9.44401 134.672 9.29818 134.469 9.21484C134.271 9.1263 134.026 9.08203 133.734 9.08203C133.432 9.08203 133.169 9.14193 132.945 9.26172C132.727 9.38151 132.544 9.54818 132.398 9.76172C132.258 9.97005 132.151 10.2148 132.078 10.4961C132.005 10.7773 131.969 11.0794 131.969 11.4023ZM74.0156 23.5508H78.2578C79.1276 23.5508 79.875 23.681 80.5 23.9414C81.1302 24.2018 81.6146 24.5872 81.9531 25.0977C82.2917 25.6081 82.4609 26.2357 82.4609 26.9805C82.4609 27.5898 82.3568 28.1133 82.1484 28.5508C81.9453 28.9831 81.6562 29.3451 81.2812 29.6367C80.9115 29.9232 80.4766 30.1523 79.9766 30.3242L79.2344 30.7148H75.5469L75.5312 28.8867H78.2734C78.6849 28.8867 79.026 28.8138 79.2969 28.668C79.5677 28.5221 79.7708 28.319 79.9062 28.0586C80.0469 27.7982 80.1172 27.4961 80.1172 27.1523C80.1172 26.7878 80.0495 26.4727 79.9141 26.207C79.7786 25.9414 79.5729 25.7383 79.2969 25.5977C79.0208 25.457 78.6745 25.3867 78.2578 25.3867H76.3594V34.9258H74.0156V23.5508ZM80.375 34.9258L77.7812 29.8555L80.2578 29.8398L82.8828 34.8164V34.9258H80.375ZM88.6875 33.0195V29.2539C88.6875 28.9831 88.6432 28.7513 88.5547 28.5586C88.4661 28.3607 88.3281 28.207 88.1406 28.0977C87.9583 27.9883 87.7214 27.9336 87.4297 27.9336C87.1797 27.9336 86.9635 27.9779 86.7812 28.0664C86.599 28.1497 86.4583 28.2721 86.3594 28.4336C86.2604 28.5898 86.2109 28.7747 86.2109 28.9883H83.9609C83.9609 28.6289 84.0443 28.2878 84.2109 27.9648C84.3776 27.6419 84.6198 27.3581 84.9375 27.1133C85.2552 26.8633 85.6328 26.668 86.0703 26.5273C86.513 26.3867 87.0078 26.3164 87.5547 26.3164C88.2109 26.3164 88.7943 26.4258 89.3047 26.6445C89.8151 26.8633 90.2161 27.1914 90.5078 27.6289C90.8047 28.0664 90.9531 28.6133 90.9531 29.2695V32.8867C90.9531 33.3503 90.9818 33.7305 91.0391 34.0273C91.0964 34.319 91.1797 34.5742 91.2891 34.793V34.9258H89.0156C88.9062 34.6966 88.8229 34.4102 88.7656 34.0664C88.7135 33.7174 88.6875 33.3685 88.6875 33.0195ZM88.9844 29.7773L89 31.0508H87.7422C87.4453 31.0508 87.1875 31.0846 86.9688 31.1523C86.75 31.2201 86.5703 31.3164 86.4297 31.4414C86.2891 31.5612 86.1849 31.7018 86.1172 31.8633C86.0547 32.0247 86.0234 32.2018 86.0234 32.3945C86.0234 32.5872 86.0677 32.7617 86.1562 32.918C86.2448 33.069 86.3724 33.1888 86.5391 33.2773C86.7057 33.3607 86.901 33.4023 87.125 33.4023C87.4635 33.4023 87.7578 33.3346 88.0078 33.1992C88.2578 33.0638 88.4505 32.8971 88.5859 32.6992C88.7266 32.5013 88.7995 32.3138 88.8047 32.1367L89.3984 33.0898C89.3151 33.3034 89.2005 33.5247 89.0547 33.7539C88.9141 33.9831 88.7344 34.1992 88.5156 34.4023C88.2969 34.6003 88.0339 34.7643 87.7266 34.8945C87.4193 35.0195 87.0547 35.082 86.6328 35.082C86.0964 35.082 85.6094 34.9753 85.1719 34.7617C84.7396 34.543 84.3958 34.2435 84.1406 33.8633C83.8906 33.4779 83.7656 33.0404 83.7656 32.5508C83.7656 32.1081 83.849 31.7148 84.0156 31.3711C84.1823 31.0273 84.4271 30.7383 84.75 30.5039C85.0781 30.2643 85.487 30.0846 85.9766 29.9648C86.4661 29.8398 87.0339 29.7773 87.6797 29.7773H88.9844ZM95.0625 26.4727V34.9258H92.8047V26.4727H95.0625ZM92.6641 24.2695C92.6641 23.9414 92.7786 23.6706 93.0078 23.457C93.237 23.2435 93.5443 23.1367 93.9297 23.1367C94.3099 23.1367 94.6146 23.2435 94.8438 23.457C95.0781 23.6706 95.1953 23.9414 95.1953 24.2695C95.1953 24.5977 95.0781 24.8685 94.8438 25.082C94.6146 25.2956 94.3099 25.4023 93.9297 25.4023C93.5443 25.4023 93.237 25.2956 93.0078 25.082C92.7786 24.8685 92.6641 24.5977 92.6641 24.2695ZM99.2969 22.9258V34.9258H97.0391V22.9258H99.2969ZM103.57 32.7383L105.328 26.4727H106.758L106.297 28.9336L104.539 34.9258H103.344L103.57 32.7383ZM102.68 26.4727L103.938 32.7305L104.055 34.9258H102.648L100.508 26.4727H102.68ZM108.367 32.6289L109.594 26.4727H111.773L109.633 34.9258H108.234L108.367 32.6289ZM106.953 26.4727L108.703 32.6914L108.945 34.9258H107.742L105.984 28.9414L105.539 26.4727H106.953ZM117.469 33.0195V29.2539C117.469 28.9831 117.424 28.7513 117.336 28.5586C117.247 28.3607 117.109 28.207 116.922 28.0977C116.74 27.9883 116.503 27.9336 116.211 27.9336C115.961 27.9336 115.745 27.9779 115.562 28.0664C115.38 28.1497 115.24 28.2721 115.141 28.4336C115.042 28.5898 114.992 28.7747 114.992 28.9883H112.742C112.742 28.6289 112.826 28.2878 112.992 27.9648C113.159 27.6419 113.401 27.3581 113.719 27.1133C114.036 26.8633 114.414 26.668 114.852 26.5273C115.294 26.3867 115.789 26.3164 116.336 26.3164C116.992 26.3164 117.576 26.4258 118.086 26.6445C118.596 26.8633 118.997 27.1914 119.289 27.6289C119.586 28.0664 119.734 28.6133 119.734 29.2695V32.8867C119.734 33.3503 119.763 33.7305 119.82 34.0273C119.878 34.319 119.961 34.5742 120.07 34.793V34.9258H117.797C117.688 34.6966 117.604 34.4102 117.547 34.0664C117.495 33.7174 117.469 33.3685 117.469 33.0195ZM117.766 29.7773L117.781 31.0508H116.523C116.227 31.0508 115.969 31.0846 115.75 31.1523C115.531 31.2201 115.352 31.3164 115.211 31.4414C115.07 31.5612 114.966 31.7018 114.898 31.8633C114.836 32.0247 114.805 32.2018 114.805 32.3945C114.805 32.5872 114.849 32.7617 114.938 32.918C115.026 33.069 115.154 33.1888 115.32 33.2773C115.487 33.3607 115.682 33.4023 115.906 33.4023C116.245 33.4023 116.539 33.3346 116.789 33.1992C117.039 33.0638 117.232 32.8971 117.367 32.6992C117.508 32.5013 117.581 32.3138 117.586 32.1367L118.18 33.0898C118.096 33.3034 117.982 33.5247 117.836 33.7539C117.695 33.9831 117.516 34.1992 117.297 34.4023C117.078 34.6003 116.815 34.7643 116.508 34.8945C116.201 35.0195 115.836 35.082 115.414 35.082C114.878 35.082 114.391 34.9753 113.953 34.7617C113.521 34.543 113.177 34.2435 112.922 33.8633C112.672 33.4779 112.547 33.0404 112.547 32.5508C112.547 32.1081 112.63 31.7148 112.797 31.3711C112.964 31.0273 113.208 30.7383 113.531 30.5039C113.859 30.2643 114.268 30.0846 114.758 29.9648C115.247 29.8398 115.815 29.7773 116.461 29.7773H117.766ZM123.852 33.9727L126.094 26.4727H128.508L125.109 36.1992C125.036 36.4128 124.938 36.6419 124.812 36.8867C124.693 37.1315 124.529 37.3633 124.32 37.582C124.117 37.806 123.859 37.9883 123.547 38.1289C123.24 38.2695 122.862 38.3398 122.414 38.3398C122.201 38.3398 122.026 38.3268 121.891 38.3008C121.755 38.2747 121.594 38.2383 121.406 38.1914V36.543C121.464 36.543 121.523 36.543 121.586 36.543C121.648 36.5482 121.708 36.5508 121.766 36.5508C122.062 36.5508 122.305 36.5169 122.492 36.4492C122.68 36.3815 122.831 36.2773 122.945 36.1367C123.06 36.0013 123.151 35.8242 123.219 35.6055L123.852 33.9727ZM122.914 26.4727L124.75 32.5977L125.07 34.9805L123.539 35.1445L120.5 26.4727H122.914ZM138.195 23.5508V34.9258H135.859V23.5508H138.195ZM141.695 23.5508V25.3867H132.414V23.5508H141.695ZM145.266 26.4727V34.9258H143.008V26.4727H145.266ZM142.867 24.2695C142.867 23.9414 142.982 23.6706 143.211 23.457C143.44 23.2435 143.747 23.1367 144.133 23.1367C144.513 23.1367 144.818 23.2435 145.047 23.457C145.281 23.6706 145.398 23.9414 145.398 24.2695C145.398 24.5977 145.281 24.8685 145.047 25.082C144.818 25.2956 144.513 25.4023 144.133 25.4023C143.747 25.4023 143.44 25.2956 143.211 25.082C142.982 24.8685 142.867 24.5977 142.867 24.2695ZM150.617 33.3242C150.893 33.3242 151.138 33.2721 151.352 33.168C151.565 33.0586 151.732 32.9076 151.852 32.7148C151.977 32.5169 152.042 32.2852 152.047 32.0195H154.164C154.159 32.6133 154 33.1419 153.688 33.6055C153.375 34.0638 152.956 34.4258 152.43 34.6914C151.904 34.9518 151.315 35.082 150.664 35.082C150.008 35.082 149.435 34.9727 148.945 34.7539C148.461 34.5352 148.057 34.2331 147.734 33.8477C147.411 33.457 147.169 33.0039 147.008 32.4883C146.846 31.9674 146.766 31.4102 146.766 30.8164V30.5898C146.766 29.9909 146.846 29.4336 147.008 28.918C147.169 28.3971 147.411 27.944 147.734 27.5586C148.057 27.168 148.461 26.8633 148.945 26.6445C149.43 26.4258 149.997 26.3164 150.648 26.3164C151.341 26.3164 151.948 26.4492 152.469 26.7148C152.995 26.9805 153.406 27.3607 153.703 27.8555C154.005 28.3451 154.159 28.9258 154.164 29.5977H152.047C152.042 29.3164 151.982 29.0612 151.867 28.832C151.758 28.6029 151.596 28.4206 151.383 28.2852C151.174 28.1445 150.917 28.0742 150.609 28.0742C150.281 28.0742 150.013 28.1445 149.805 28.2852C149.596 28.4206 149.435 28.6081 149.32 28.8477C149.206 29.082 149.125 29.3503 149.078 29.6523C149.036 29.9492 149.016 30.2617 149.016 30.5898V30.8164C149.016 31.1445 149.036 31.4596 149.078 31.7617C149.12 32.0638 149.198 32.332 149.312 32.5664C149.432 32.8008 149.596 32.9857 149.805 33.1211C150.013 33.2565 150.284 33.3242 150.617 33.3242ZM157.719 22.918V34.9258H155.469V22.918H157.719ZM163.047 26.4727L159.375 30.6602L157.406 32.6523L156.586 31.0273L158.148 29.043L160.344 26.4727H163.047ZM160.711 34.9258L158.211 31.0195L159.766 29.6602L163.305 34.9258H160.711ZM167.75 35.082C167.094 35.082 166.505 34.9779 165.984 34.7695C165.464 34.556 165.021 34.2617 164.656 33.8867C164.297 33.5117 164.021 33.0768 163.828 32.582C163.635 32.082 163.539 31.5508 163.539 30.9883V30.6758C163.539 30.0352 163.63 29.4492 163.812 28.918C163.995 28.3867 164.255 27.9258 164.594 27.5352C164.938 27.1445 165.354 26.8451 165.844 26.6367C166.333 26.4232 166.885 26.3164 167.5 26.3164C168.099 26.3164 168.63 26.4154 169.094 26.6133C169.557 26.8112 169.945 27.0924 170.258 27.457C170.576 27.8216 170.815 28.2591 170.977 28.7695C171.138 29.2747 171.219 29.8372 171.219 30.457V31.3945H164.5V29.8945H169.008V29.7227C169.008 29.4102 168.951 29.1315 168.836 28.8867C168.727 28.6367 168.56 28.4388 168.336 28.293C168.112 28.1471 167.826 28.0742 167.477 28.0742C167.18 28.0742 166.924 28.1393 166.711 28.2695C166.497 28.3997 166.323 28.582 166.188 28.8164C166.057 29.0508 165.958 29.3268 165.891 29.6445C165.828 29.957 165.797 30.3008 165.797 30.6758V30.9883C165.797 31.3268 165.844 31.6393 165.938 31.9258C166.036 32.2122 166.174 32.4596 166.352 32.668C166.534 32.8763 166.753 33.0378 167.008 33.1523C167.268 33.2669 167.562 33.3242 167.891 33.3242C168.297 33.3242 168.674 33.2461 169.023 33.0898C169.378 32.9284 169.682 32.6862 169.938 32.3633L171.031 33.5508C170.854 33.806 170.612 34.0508 170.305 34.2852C170.003 34.5195 169.638 34.7122 169.211 34.8633C168.784 35.0091 168.297 35.082 167.75 35.082ZM176.641 26.4727V28.0664H171.719V26.4727H176.641ZM172.938 24.3867H175.188V32.3789C175.188 32.6237 175.219 32.8112 175.281 32.9414C175.349 33.0716 175.448 33.1628 175.578 33.2148C175.708 33.2617 175.872 33.2852 176.07 33.2852C176.211 33.2852 176.336 33.2799 176.445 33.2695C176.56 33.2539 176.656 33.2383 176.734 33.2227L176.742 34.8789C176.549 34.9414 176.341 34.9909 176.117 35.0273C175.893 35.0638 175.646 35.082 175.375 35.082C174.88 35.082 174.448 35.0013 174.078 34.8398C173.714 34.6732 173.432 34.4076 173.234 34.043C173.036 33.6784 172.938 33.1992 172.938 32.6055V24.3867ZM182.492 32.5898C182.492 32.4284 182.445 32.2826 182.352 32.1523C182.258 32.0221 182.083 31.9023 181.828 31.793C181.578 31.6784 181.216 31.5742 180.742 31.4805C180.315 31.3867 179.917 31.2695 179.547 31.1289C179.182 30.9831 178.865 30.8086 178.594 30.6055C178.328 30.4023 178.12 30.1628 177.969 29.8867C177.818 29.6055 177.742 29.2852 177.742 28.9258C177.742 28.5716 177.818 28.2383 177.969 27.9258C178.125 27.6133 178.346 27.3372 178.633 27.0977C178.924 26.8529 179.279 26.6628 179.695 26.5273C180.117 26.3867 180.591 26.3164 181.117 26.3164C181.852 26.3164 182.482 26.4336 183.008 26.668C183.539 26.9023 183.945 27.2253 184.227 27.6367C184.513 28.043 184.656 28.5065 184.656 29.0273H182.406C182.406 28.8086 182.359 28.6133 182.266 28.4414C182.177 28.2643 182.036 28.1263 181.844 28.0273C181.656 27.9232 181.411 27.8711 181.109 27.8711C180.859 27.8711 180.643 27.9154 180.461 28.0039C180.279 28.0872 180.138 28.2018 180.039 28.3477C179.945 28.4883 179.898 28.6445 179.898 28.8164C179.898 28.9466 179.924 29.0638 179.977 29.168C180.034 29.2669 180.125 29.3581 180.25 29.4414C180.375 29.5247 180.536 29.6029 180.734 29.6758C180.938 29.7435 181.188 29.806 181.484 29.8633C182.094 29.9883 182.638 30.1523 183.117 30.3555C183.596 30.5534 183.977 30.8242 184.258 31.168C184.539 31.5065 184.68 31.9518 184.68 32.5039C184.68 32.8789 184.596 33.2227 184.43 33.5352C184.263 33.8477 184.023 34.1211 183.711 34.3555C183.398 34.5846 183.023 34.7643 182.586 34.8945C182.154 35.0195 181.667 35.082 181.125 35.082C180.339 35.082 179.672 34.9414 179.125 34.6602C178.583 34.3789 178.172 34.0221 177.891 33.5898C177.615 33.1523 177.477 32.7044 177.477 32.2461H179.609C179.62 32.5534 179.698 32.8008 179.844 32.9883C179.995 33.1758 180.185 33.3112 180.414 33.3945C180.648 33.4779 180.901 33.5195 181.172 33.5195C181.464 33.5195 181.706 33.4805 181.898 33.4023C182.091 33.319 182.237 33.2096 182.336 33.0742C182.44 32.9336 182.492 32.7721 182.492 32.5898Z" fill="#222222"/>
</svg>
